
<svg version="1.1" id="bg" xmlns="http://www.w3.org/2000/svg" xmlns:xlink="http://www.w3.org/1999/xlink" x="0px" y="0px"
	 viewBox="0 0 64 64" style="enable-background:new 0 0 64 64;" xml:space="preserve">
<g id="XMLID_1_">
	<path id="XMLID_12_" d="M60.7,44.5c0,0-0.3,0.7-1,2c-0.2,0.3-0.3,0.7-0.6,1.1c-0.2,0.4-0.5,0.8-0.8,1.2c-0.3,0.4-0.6,0.9-0.9,1.4
		c-0.4,0.5-0.8,1-1.2,1.5c-1.7,2.1-4,4.5-7.1,6.5c-3.1,2-7.1,3.8-11.6,4.7c-4.5,0.8-9.7,0.7-14.8-0.8c-0.6-0.2-1.3-0.4-1.9-0.7
		c-0.6-0.3-1.3-0.4-1.9-0.8c-1.2-0.6-2.5-1.1-3.6-1.9c-2.4-1.4-4.6-3.3-6.6-5.4c-2-2.1-3.6-4.6-5-7.2c-1.3-2.7-2.3-5.6-2.9-8.6
		c-0.5-3-0.6-6.1-0.3-9.2c0.4-3.1,1.2-6.1,2.4-9c1.3-2.8,2.9-5.5,4.9-7.9c2-2.3,4.3-4.4,6.9-6.1c2.6-1.6,5.4-3,8.2-3.8
		c2.9-0.8,5.8-1.3,8.8-1.3c2.9,0,5.8,0.3,8.5,1.1c1.4,0.3,2.7,0.9,3.9,1.3c0.7,0.2,1.2,0.6,1.8,0.9c0.6,0.3,1.2,0.6,1.8,0.9
		c4.6,2.8,8.2,6.4,10.7,10.4c2.5,4,3.8,8.1,4.4,11.8c0.6,3.7,0.4,7,0,9.7c-0.1,0.7-0.2,1.3-0.3,1.9c-0.1,0.6-0.3,1.1-0.4,1.6
		c-0.1,0.5-0.3,1-0.4,1.4c-0.1,0.4-0.3,0.8-0.4,1.1C61,43.8,60.7,44.5,60.7,44.5z M60.6,44.5c0,0,0.3-0.7,0.8-2.1
		c0.1-0.3,0.3-0.7,0.4-1.1c0.1-0.4,0.2-0.9,0.4-1.4c0.1-0.5,0.3-1,0.4-1.6c0.1-0.6,0.2-1.2,0.3-1.9c0.3-2.6,0.5-5.9-0.2-9.6
		c-0.7-3.6-2.1-7.7-4.6-11.5c-2.5-3.8-6.1-7.3-10.6-9.9c-0.5-0.3-1.2-0.6-1.8-0.9c-0.6-0.3-1.2-0.6-1.8-0.8c-1.3-0.5-2.5-1-3.8-1.3
		c-2.6-0.8-5.4-1.1-8.2-1.1c-2.8,0-5.7,0.5-8.5,1.2c-2.8,0.8-5.5,2.1-8,3.6c-2.5,1.6-4.8,3.6-6.8,5.9c-2,2.3-3.5,4.9-4.8,7.6
		c-1.2,2.8-2,5.7-2.4,8.7c-0.3,3-0.3,6,0.2,9c0.6,2.9,1.5,5.8,2.8,8.4c1.4,2.6,2.9,5,4.9,7.1c1.9,2.1,4.1,3.9,6.4,5.3
		c1.1,0.8,2.4,1.3,3.6,1.9c0.6,0.3,1.2,0.5,1.8,0.8c0.6,0.2,1.2,0.5,1.9,0.7c5,1.5,10.1,1.7,14.6,1C42,61.8,46,60.1,49.1,58
		c3.2-2,5.4-4.4,7.1-6.4c0.4-0.5,0.8-1,1.2-1.5c0.4-0.5,0.6-1,0.9-1.4c0.3-0.4,0.5-0.8,0.8-1.2c0.2-0.4,0.4-0.7,0.6-1.1
		C60.3,45.1,60.6,44.5,60.6,44.5z"/>
</g>
<g id="XMLID_2_">
	<path id="XMLID_4_" d="M22.9,20.5h0.3c2.8,0,5,1.1,6.6,3.2c0.1,0.3,0.2,0.5,0.2,0.5v0.1c0,0.1-0.1,0.1-0.3,0.1
		c-1.7-0.3-3-0.5-3.9-0.5c-1.5,0-2.8,0.3-4.1,1c0,0.1,0.1,0.2,0.1,0.5c0,0.4-0.2,0.9-0.5,1.4v0.1c0.3,0,0.9,0.5,1.6,1.6
		c0.1,0.3,0.2,0.6,0.2,0.8v0.2c0,1.1-0.9,2.9-2.8,5.4c-1.4,2.2-2.1,3.6-2.1,4.3c0,0.6,0.3,1,0.9,1.2l0.1,0.1
		c-0.2,0.6-0.6,0.9-1.4,0.9h-0.2c-1.2,0-2-0.5-2.4-1.6c-0.2-0.5-0.3-1-0.3-1.6v-0.1c0-1.3,0.6-2.8,1.9-4.5c0.6-0.9,1.6-2.2,2.8-3.8
		c0-0.1,0-0.1,0-0.2v-0.1c-0.3,0-0.8,0.4-1.7,1.2c-0.9,0.7-1.5,1.1-1.8,1.1c-0.7-0.6-1.3-1.4-1.7-2.4c-0.1-0.1-0.1-0.2-0.1-0.4V29
		c0,0,0-0.1,0.1-0.1l0.3,0.1c1-0.3,1.8-0.9,2.3-1.7c0.1-0.1,0.1-0.2,0.1-0.3v-0.1c-0.2-0.2-0.3-0.3-0.4-0.3c-2.5,1.3-4.7,2-6.5,2
		c-1.9,0-3.2-1-3.9-3c-0.1-0.3-0.1-0.5-0.1-0.7v-0.2c0.1-1.4,0.5-2.1,1-2.2h0c0.2,0,0.6,0.4,1.2,1.2c0.8,0.7,1.5,1.1,2.2,1.1h0.3
		c0.7,0,2.5-0.8,5.3-2.3C18.9,21.1,21,20.5,22.9,20.5z"/>
	<path id="XMLID_6_" d="M15.5,43.8l0.1-0.1c0.2-0.2,0.5-0.2,0.8-0.1c0.2-0.1,0.9-0.1,2.1-0.1c0.1-1,0.2-1.8,0.3-2.5l0.1-0.1
		c0.4-0.4,0.8-0.3,1.3,0.1l0.1,0.1c0.3,0.3,0.4,0.9,0.3,1.9c0,0.4,0,0.6,0,0.6c1.3,0,2,0,2.2,0.1c0.1,0.1,0.2,0.1,0.3,0.2l0.4,0.4
		c0.3,0.3,0.3,0.5,0.1,0.7l-0.1,0.1c-0.3,0.3-1.1,0.4-2.5,0.5l-0.4,0c0,1.7-0.1,2.5-0.1,2.6c0,0.1-0.1,0.2-0.1,0.3l-0.1,0.1
		c-0.3,0.3-0.8,0.2-1.6-0.3c-0.4-0.5-0.6-1.1-0.4-1.8l0-0.7c-1.3,0.1-2,0.1-2.3-0.2l-0.2-0.2C15.3,44.7,15.2,44.1,15.5,43.8z"/>
	<path id="XMLID_8_" d="M50.9,20.2c2.2,0,4.1,0.8,5.8,2.3c0.2,0.3,0.3,0.6,0.3,0.8v0.3c0,0.3-0.2,0.5-0.4,0.5
		c-0.8-0.3-2.1-0.4-3.7-0.4h-0.7c-1.6,0-3.8,0.7-6.6,2c-2.7,1-4.4,1.5-5.2,1.5c-0.4,0.1-0.9,0.2-1.7,0.2c-0.6,1.4-0.9,2.7-0.9,3.9
		c0,0.8,0.3,1.6,1,2.6c0.5,0.5,1.1,0.7,1.7,0.7h0.4c1,0,2.2-0.5,3.7-1.4c2.4-1.3,4.6-2,6.6-2c2.9,0,4.8,0.9,5.7,2.8
		c0.1,0.2,0.2,0.5,0.2,0.7c0,0.4-0.5,0.6-1.4,0.6c-0.1,0-0.3-0.1-0.7-0.2c-0.1,0-0.2,0-0.5,0c-0.9-0.3-1.6-0.4-2.2-0.4h-0.4
		c-1.7,0-4.2,0.9-7.4,2.6c-2.2,1.1-3.9,1.6-5.2,1.6c-2.2,0-3.6-1-4.4-3c-0.6-1.2-0.9-2.4-0.9-3.8V32c0-1.5,0.3-2.6,0.8-3.4
		c0.1-0.1,0.5-0.4,1.2-0.7c0.3-0.4,0.5-0.6,0.5-0.6c-0.9-0.2-1.6-0.5-2.1-0.9c-0.7-0.6-1-1.3-1-2c0-1.1,0.4-1.9,1.3-2.7h0.1
		c0.1,0,0.3,0.2,0.7,0.6c1.1,0.8,2.3,1.2,3.4,1.2h0.1c1.3,0,3.4-0.7,6.5-2.1C47.6,20.6,49.5,20.2,50.9,20.2z"/>
	<path id="XMLID_10_" d="M42.5,43.8l0.1-0.1c0.2-0.2,0.5-0.2,0.8-0.1c0.2-0.1,0.9-0.1,2.1-0.1c0.1-1,0.2-1.8,0.3-2.5l0.1-0.1
		c0.4-0.4,0.8-0.3,1.3,0.1l0.1,0.1c0.3,0.3,0.4,0.9,0.3,1.9c0,0.4,0,0.6,0,0.6c1.3,0,2,0,2.2,0.1c0.1,0.1,0.2,0.1,0.3,0.2l0.4,0.4
		c0.3,0.3,0.3,0.5,0.1,0.7l-0.1,0.1c-0.3,0.3-1.1,0.4-2.5,0.5l-0.4,0c0,1.7-0.1,2.5-0.1,2.6c0,0.1-0.1,0.2-0.1,0.3l-0.1,0.1
		c-0.3,0.3-0.8,0.2-1.6-0.3c-0.4-0.5-0.6-1.1-0.4-1.8l0-0.7c-1.3,0.1-2,0.1-2.3-0.2l-0.2-0.2C42.3,44.7,42.2,44.1,42.5,43.8z"/>
</g>
</svg>
